<?xml version="1.0" encoding="utf-8"?>
<!-- Generator: Adobe Illustrator 25.0.0, SVG Export Plug-In . SVG Version: 6.00 Build 0)  -->
<svg version="1.1" xmlns="http://www.w3.org/2000/svg" xmlns:xlink="http://www.w3.org/1999/xlink" x="0px" y="0px"
	 viewBox="0 0 3013 990" style="enable-background:new 0 0 3013 990;" xml:space="preserve">
<style type="text/css">
	.st0{fill:none;}
	.st1{font-family:'Calibri';}
	.st2{font-size:191.8337px;}
</style>
<g id="Layer_1">
	<path d="M526,910.4c-15.3-1.4-34.3-3.9-46-6c-134.8-24.8-249.6-112.9-310.1-237.8c-11.1-23.1-25.4-60.5-23.7-62.2
		c0.6-0.6,147.8,60.4,153.2,63.4c2.3,1.4,3.3,3.2,5.3,10.2c7.5,26.7,27.5,54,50.8,69.5c22.6,15,44.2,21.5,71.1,21.5
		c35,0,65.6-13,90.2-38.4c21.9-22.7,34.4-50.7,35.9-80.8c0.5-10.2,0.9-12,2.7-13.6c1.2-1.1,33.7-24.7,72.2-52.4l70.2-50.5l11.9-0.6
		c30-1.5,62.5-12.8,87.3-30.4c12.2-8.7,31.6-28.1,40.3-40.3c7.9-11.2,18.3-31.8,22.6-44.8c11.6-35.1,11.4-73.9-0.5-108.3
		c-28.1-81.5-110.9-128.8-193.9-110.8c-51,11-94.5,46-116.9,94.1c-8.6,18.4-14.4,41.1-15.3,60.3c-0.4,8.2-1,11.8-2.4,14.3
		c-2.2,3.9-96.5,142-98.5,144.3c-1.1,1.2-4.2,1.8-11.9,2.2c-19.6,1.2-37.1,6.2-54.2,15.3L356,534l-112.7-47
		c-62.1-25.9-113.3-47.6-113.9-48.3c-2.4-2.5,3.1-38.7,10.1-67.4C179.4,208.9,310,83,472.2,50.6c144.4-28.8,291.5,17,393.4,122.6
		c60.7,63,101.2,142.6,115.8,228c4.8,27.6,6,43,6,75.8c0,32.7-1.1,46.9-6,75c-30,174.9-166,316-337.9,350.5
		c-31.4,6.4-44.4,7.6-80.5,8C545.1,910.6,528.5,910.6,526,910.4L526,910.4z"/>
	<path d="M409,728.5c-13.5-2.8-26-8.5-37-17c-8.5-6.5-19.1-18.7-17.6-20.2c0.3-0.3,10.6,3.5,22.7,8.6c28,11.6,31.4,12.6,45.9,12.5
		c9.2,0,13-0.4,19-2.3c18.3-5.7,31.7-15.9,41.4-31.5c20.8-33.5,11.3-77.2-21.6-99.1c-3.1-2-16.3-8.1-29.4-13.6s-24.3-10.4-24.8-10.9
		c-1.5-1.5,6.4-2.5,20.4-2.4c11.6,0.1,14.7,0.5,22.3,2.8c30.1,9.1,51.7,30.8,60.8,61.1c3,10.1,3.7,31.2,1.5,42.6
		c-3.2,15.7-10.9,30.6-22,42.6c-13.5,14.6-30.5,23.8-50,27.2C432.6,730.4,417,730.1,409,728.5L409,728.5z"/>
	<path d="M1202.5,530.5c-15.8-2.2-28.9-5.3-43.5-10.2c-14.6-4.8-34-13.8-34-15.8c0-0.6,3.8-11.3,8.3-23.6c9.8-26.1,7.7-24.5,22.9-18
		c11.6,4.9,29.6,10.2,43.3,12.7c14.9,2.7,44.1,2.5,54.7-0.4c16.5-4.5,25.6-10.9,31-21.9c2.8-5.7,3.3-7.7,3.3-14.2
		c0-8.9-2.2-14.5-7.9-20.9c-7.9-8.8-18.7-13.8-58.2-27.2c-50-16.9-70.8-29.8-84-51.8c-10.7-17.6-12.9-47-5.3-69.7
		c10.2-30.6,35.8-50.1,76.4-58.2c7.1-1.4,13.8-1.8,31.5-1.8c23.9,0.1,31.3,0.9,51.4,6.1c16.3,4.1,38.9,14,46.6,20.2l2.2,1.8
		l-11.2,20c-6.2,10.9-11.8,20.5-12.4,21.2c-1,1-3.3,0.1-11.7-4.2c-20.5-10.7-37.9-15.4-59.9-16.2c-11.2-0.5-16.2-0.2-22,1
		c-14.6,3.1-25.2,10.3-30.7,20.8c-2.5,4.8-2.8,6.3-2.8,15.3c0,8.4,0.4,10.7,2.2,14.1c6.4,12,20.9,20.1,60.8,33.9
		c13.8,4.8,28.7,10.2,33.3,12.1c35.6,14.7,52.7,29.6,61,53.3c2.5,7.1,2.7,8.7,2.7,25.6c0,15.7-0.3,19.1-2.3,26.3
		c-9.8,35.8-37,58.8-81.1,68.3C1254.4,531.8,1217.6,532.6,1202.5,530.5L1202.5,530.5z"/>
	<path d="M1505.7,526.3c-0.4-0.3-0.7-58.3-0.7-128.8c0-128.2,0-128.2-2.1-130.9l-2-2.6H1455c-40.8,0-45.9-0.2-46.4-1.6
		c-1.2-3.1-0.7-45.9,0.6-47.2c1.7-1.7,247.9-1.7,249.6,0c1.3,1.3,1.8,44.1,0.6,47.2c-0.5,1.4-5.5,1.6-45.9,1.6
		c-43.1,0-45.4,0.1-47.6,1.9l-2.4,1.9l-0.3,129.6L1563,527h-28.3C1519.1,527,1506,526.7,1505.7,526.3L1505.7,526.3z"/>
	<path d="M1741.6,525.4c-0.3-0.9-0.6-70.7-0.6-155.3c0-118.2,0.3-154,1.2-154.9c1.7-1.7,202.9-1.7,204.6,0c0.9,0.9,1.2,7.6,1.2,23.8
		s-0.3,22.9-1.2,23.8c-0.9,0.9-18.4,1.2-72.4,1.2h-71.3l-1.5,2.2c-1.4,1.9-1.6,7.3-1.6,37.9v35.8l2.6,2c2.6,2.1,3.5,2.1,63.6,2.1
		h60.8l-0.2,24.8l-0.3,24.7l-61.5,0.2c-61.3,0.3-61.5,0.3-63.2,2.4c-1.6,1.9-1.8,5.4-1.8,39.4c0,36.5,0,37.2,2.1,39.1
		c2,1.8,5.1,1.9,73.8,2.4l71.6,0.5l0.3,22.5c0.1,12.4,0,23.5-0.3,24.8l-0.5,2.2h-102.4C1752.2,527,1742.2,526.8,1741.6,525.4
		L1741.6,525.4z"/>
	<path d="M2016.2,524.8c1.1-5.6,114.2-308.4,115.6-309.5c2.3-1.8,58.1-1.8,60.4-0.1c1.5,1.3,118.8,307.4,118.8,310.3
		c0,1.4-3.4,1.5-31.2,1.3l-31.3-0.3l-10.2-29.5c-6.1-17.5-10.9-30-11.9-30.7c-1.4-1-15.1-1.3-64.4-1.3c-58.7,0-62.8,0.1-64.3,1.8
		c-0.9,0.9-6,14.8-11.5,30.7l-9.9,29l-30.3,0.3l-30.2,0.2L2016.2,524.8L2016.2,524.8z M2207,417c1.1-1.1,2-2.7,2-3.5
		c0-1.6-40.5-119.4-42.7-124.2c-2.4-5.3-7-5.5-9.3-0.5c-1.9,4.2-42,123.3-42,124.9c0,0.7,0.9,2.2,2,3.3c1.9,1.9,3.3,2,45,2
		S2205.1,418.9,2207,417L2207,417z"/>
	<path d="M2390.2,370.8l0.3-156.3l27-0.3c20.7-0.2,27.5,0.1,28.7,1c0.9,0.7,24.9,51.9,53.4,113.7c36.9,79.9,52.5,112.8,54.1,113.8
		c2,1.4,2.6,1.4,4.6,0c1.6-1,16.1-32.6,52.1-113.7c27.5-61.7,50.6-112.8,51.3-113.6c1.2-1.2,6.3-1.4,29.1-1.2l27.7,0.3v156v156
		l-26.9,0.3c-20.9,0.2-27.1-0.1-27.8-1c-0.4-0.7-0.8-43.7-0.8-95.5c0-84.2-0.2-94.3-1.6-95.7c-2.1-2.1-3.7-2-5.9,0.4
		c-0.9,1-20.4,42.1-43.2,91.2s-42.1,89.9-43,90.6c-1.2,0.8-6,1.2-15.8,1.2s-14.6-0.4-15.7-1.2c-0.8-0.7-19.8-41.1-42.2-89.8
		s-41.4-89.3-42.3-90.2c-0.9-1-2.4-1.8-3.3-1.8c-4.6,0-4.5-2.3-4.8,97.7L2445,527h-27.5H2390L2390.2,370.8L2390.2,370.8z"/>
	<path d="M686.6,469c-35.5-5.6-64.9-27.1-80.1-58.3c-25.8-53.3-4.5-116.3,48-142.2c40.8-20.1,87.8-12.3,120.1,19.9
		c34.7,34.8,41.2,88.4,15.8,130.7c-6.2,10.3-20,25-29.9,31.8c-16.9,11.7-35.4,17.9-56,18.6C697.9,469.7,689.8,469.5,686.6,469
		L686.6,469z M723.8,447.1c45.1-13.1,72-60,60.3-105.2c-8.3-32.3-34.1-56.8-66.9-63.5c-12.2-2.6-30-1.5-42.2,2.4
		c-27.4,9-49.1,31.6-57,59.4c-3.2,11.2-3.7,28.8-1.2,40.9c7,33.5,33,59.8,66.8,67.3C693.4,450.6,714,449.9,723.8,447.1L723.8,447.1z
		"/>
	<path d="M1524,399"/>
</g>
<g id="Layer_2">
	<rect x="1449.7" y="758.7" class="st0" width="3" height="0"/>
	<text transform="matrix(0.974 0 0 1 1124.9995 725.5898)" class="st1 st2">Achievement Manager</text>
</g>
</svg>
