<?xml version="1.0" ?><!DOCTYPE svg  PUBLIC '-//W3C//DTD SVG 1.1//EN'  'http://www.w3.org/Graphics/SVG/1.1/DTD/svg11.dtd'><svg height="512px" style="enable-background:new 0 0 512 512;" version="1.1" viewBox="0 0 512 512" width="512px" xml:space="preserve" xmlns="http://www.w3.org/2000/svg" xmlns:xlink="http://www.w3.org/1999/xlink"><g id="comp_x5F_320-steam"><g><path d="M432.094,175.347c0,34.705-28.236,62.634-62.634,62.634c-34.706,0-62.635-28.03-62.635-62.634    c0-34.603,28.031-62.634,62.635-62.634C403.857,112.713,432.094,140.642,432.094,175.347z M485.999,175.552    c0,64.688-52.365,116.849-116.743,116.849l-112.229,81.937c-4.106,44.152-41.584,78.856-86.763,78.856    c-41.584,0-76.701-29.57-85.223-68.795l-59.04-23.717V250.508l99.804,40.351c15.505-9.444,33.062-13.655,53.393-11.806    l72.901-104.425c0.513-63.969,52.879-115.821,117.053-115.821C433.634,58.807,485.999,111.172,485.999,175.552z M234.438,365.816    c0-35.631-28.544-64.175-64.175-64.175c-4.621,0-9.24,0.512-13.861,1.54l26.696,10.779c26.183,10.475,39.019,40.046,28.442,66.23    c-10.474,26.183-40.25,39.017-66.435,28.234c-10.472-4.107-21.048-8.521-31.521-12.526c10.781,20.228,32.037,34.09,56.679,34.09    C205.895,429.989,234.438,401.445,234.438,365.816z M447.495,175.552c0-43.124-35.22-78.241-78.239-78.241    c-43.435,0-78.55,35.117-78.55,78.241c0,43.33,35.218,78.241,78.55,78.241C412.275,253.896,447.495,218.984,447.495,175.552z"/></g></g><g id="Layer_1"/></svg>